<?xml version="1.0" encoding="UTF-8" standalone="no"?>
<!DOCTYPE svg PUBLIC "-//W3C//DTD SVG 1.1//EN" "http://www.w3.org/Graphics/SVG/1.1/DTD/svg11.dtd">
<svg xmlns="http://www.w3.org/2000/svg" xmlns:xlink="http://www.w3.org/1999/xlink" xmlns:ev="http://www.w3.org/2001/xml-events"
		width="0.219254in" height="0.160814in" viewBox="0 0 15.7863 11.5786" xml:space="preserve"
		color-interpolation-filters="sRGB" class="st3">
	<title>Wall outlet with recessed isolation transformer for floorplan</title>
	
	<style type="text/css">
	<![CDATA[
		.st1 {fill:none}
		.st2 {stroke:#000000;stroke-linecap:round;stroke-linejoin:round;stroke-width:0.24}
		.st3 {fill:none;fill-rule:evenodd;font-size:12px;overflow:visible;stroke-linecap:square;stroke-miterlimit:3}
	]]>
	</style>

	<g>
		<title>Wall outlet with recessed isolation transformer for floorplan</title>
		<g id="1" transform="translate(0.12,-0.12)">
			<title>Wall outlet with recessed isolation transformer for floorplan</title>
			<g id="2">
				<title>Wall outlet with recessed isolation transformer for floorplan</title>
				<path d="M8.79 11 A5.10236 5.24409 -90 1 0 8.79 0.79 A5.10236 5.24409 -90 1 0 8.79 11 Z" class="st1"/>
				<path d="M3.54 5.9 L0 5.9" class="st2"/>
				<path d="M10.82 5.91 A4.72441 4.72441 -179.3 0 0 15.55 10.63" class="st2"/>
				<path d="M15.55 1.18 A4.72441 4.72441 -178.97 0 0 10.82 5.91" class="st2"/>
				<path d="M8.79 11 A5.10236 5.24409 -90 1 0 8.79 0.79 A5.10236 5.24409 -90 1 0 8.79 11" class="st2"/>
				<path d="M3.55 5.91 L3.55 11.58" class="st2"/>
				<path d="M3.55 0.24 L3.55 5.91" class="st2"/>
			</g>
		</g>
	</g>
</svg>
