<?xml version="1.0" encoding="UTF-8" standalone="no"?>
<!DOCTYPE svg PUBLIC "-//W3C//DTD SVG 1.1//EN" "http://www.w3.org/Graphics/SVG/1.1/DTD/svg11.dtd">
<svg xmlns="http://www.w3.org/2000/svg" xmlns:xlink="http://www.w3.org/1999/xlink" xmlns:ev="http://www.w3.org/2001/xml-events"
		width="0.399764in" height="0.400367in" viewBox="0 0 28.783 28.8265" xml:space="preserve" color-interpolation-filters="sRGB"
		class="st6">
	<title>Circuit breaker </title>

	<style type="text/css">
	<![CDATA[
		.st1 {fill:none;stroke:none;stroke-linecap:round;stroke-linejoin:round;stroke-width:0.72}
		.st2 {fill:#000000;font-family:Arial;font-size:0.416656em}
		.st3 {fill:#000000;font-family:Arial;font-size:0.499992em}
		.st4 {fill:#000000}
		.st5 {stroke:#000000;stroke-linecap:round;stroke-linejoin:round;stroke-width:0.24}
		.st6 {fill:none;fill-rule:evenodd;font-size:12px;overflow:visible;stroke-linecap:square;stroke-miterlimit:3}
	]]>
	</style>

	<g>
		<title>Circuit breaker </title>
		<g id="1" transform="translate(0.36,-0.36)">
			<title>Circuit breaker </title>
			<g id="2" transform="translate(0,-10.3465)">
				<title>Circuit breaker </title>
				<desc>nP</desc>
				<rect x="0" y="22.3068" width="9.14173" height="6.51969" class="st1"/>
				<text x="1.51" y="27.07" class="st2">nP</text>			</g>
			<g id="3" transform="translate(5.45669,0)">
				<title>Circuit breaker </title>
				<desc>n</desc>
				<rect x="0" y="22.3068" width="9.35433" height="6.51969" class="st1"/>
				<text x="3.01" y="27.37" class="st3">n</text>			</g>
			<g id="4" transform="translate(16.6535,-10.6299)">
				<title>Circuit breaker </title>
				<desc>20A</desc>
				<rect x="0" y="22.3068" width="11.4094" height="6.51969" class="st1"/>
				<text x="0" y="27.37" class="st3">20A</text>			</g>
			<g id="5" transform="translate(5.29356,-7.10543E-015)">
				<title>Circuit breaker </title>
				<path d="M1.76 11.03 L3.28 10.28 L1.53 6.72 L0 7.47 L1.76 11.03 Z" class="st4"/>
				<path d="M9.73 0.48 L9.73 6.15" class="st5"/>
				<path d="M9.73 28.83 L9.73 23.16 L5.53 14.76 L1.51 6.72" class="st5"/>
				<path d="M8.7 13.15 L5.53 14.77 L2.24 16.44" class="st5"/>
				<path d="M1.76 11.03 L3.28 10.28 L1.53 6.72 L0 7.47 L1.76 11.03" class="st5"/>
			</g>
		</g>
	</g>
</svg>
