<?xml version="1.0" encoding="UTF-8" standalone="no"?>
<!DOCTYPE svg PUBLIC "-//W3C//DTD SVG 1.1//EN" "http://www.w3.org/Graphics/SVG/1.1/DTD/svg11.dtd">
<svg xmlns="http://www.w3.org/2000/svg" xmlns:xlink="http://www.w3.org/1999/xlink" xmlns:ev="http://www.w3.org/2001/xml-events"
		width="0.299092in" height="0.758031in" viewBox="0 0 21.5346 54.5783" xml:space="preserve"
		color-interpolation-filters="sRGB" class="st4">
	<title>Cable recessed in wall</title>

	<style type="text/css">
	<![CDATA[
		.st1 {fill:none;stroke:none;stroke-linecap:round;stroke-linejoin:round;stroke-width:0.72}
		.st2 {fill:#000000;font-family:Arial;font-size:0.499992em}
		.st3 {stroke:#000000;stroke-linecap:round;stroke-linejoin:round;stroke-width:0.24}
		.st4 {fill:none;fill-rule:evenodd;font-size:12px;overflow:visible;stroke-linecap:square;stroke-miterlimit:3}
	]]>
	</style>

	<g>
		<title>Cable recessed in wall</title>
		<g id="1" transform="translate(0.198234,-0.36)">
			<title>Cable recessed in wall</title>
			<g id="2">
				<title>Cable recessed in wall</title>
				<g id="3" transform="translate(-33.6019,54.5783) rotate(-90)">
					<title>Cable recessed in wall</title>
					<desc>VOB X x Ymm²</desc>
					<rect x="0" y="43.8066" width="53.8583" height="10.7717" class="st1"/>
					<text x="6.59" y="50.99" class="st2">VOB X x Ymm²</text>				</g>
				<g id="4" transform="translate(-48.909,49.4759) rotate(-90)">
					<title>Cable recessed in wall</title>
					<desc>n</desc>
					<rect x="0" y="50.0428" width="11.3386" height="4.53543" class="st1"/>
					<text x="4" y="54.11" class="st2">n</text>				</g>
			</g>
			<g id="5" transform="translate(1.41732,-1.42109E-014)">
				<title>Cable recessed in wall</title>
				<path d="M5.95 0.72 L5.95 48.91 L5.95 54.58" class="st3"/>
				<path d="M8.79 51.74 L5.95 48.91 L3.12 46.07" class="st3"/>
				<path d="M3.97 3.55 L0 3.55 L0 12.2 L3.97 12.2" class="st3"/>
				<path d="M3.97 27.37 L0 27.37 L0 36.01 L3.97 36.01" class="st3"/>
				<path d="M3.97 7.81 L0 7.81" class="st3"/>
				<path d="M3.97 31.62 L0 31.62" class="st3"/>
			</g>
		</g>
	</g>
</svg>
