<?xml version="1.0" encoding="UTF-8" standalone="no"?>
<!DOCTYPE svg PUBLIC "-//W3C//DTD SVG 1.1//EN" "http://www.w3.org/Graphics/SVG/1.1/DTD/svg11.dtd">
<svg xmlns="http://www.w3.org/2000/svg" xmlns:xlink="http://www.w3.org/1999/xlink" xmlns:ev="http://www.w3.org/2001/xml-events"
		width="0.299092in" height="0.758031in" viewBox="0 0 21.5346 54.5783" xml:space="preserve"
		color-interpolation-filters="sRGB" class="st5">
	<title>Cable without conduit</title>

	<style type="text/css">
	<![CDATA[
		.st1 {fill:none;stroke:none;stroke-linecap:round;stroke-linejoin:round;stroke-width:0.72}
		.st2 {fill:#000000;font-family:Arial;font-size:0.499992em}
		.st3 {fill:none}
		.st4 {stroke:#000000;stroke-linecap:round;stroke-linejoin:round;stroke-width:0.24}
		.st5 {fill:none;fill-rule:evenodd;font-size:12px;overflow:visible;stroke-linecap:square;stroke-miterlimit:3}
	]]>
	</style>

	<g>
		<title>Cable without conduit</title>
		<g id="1" transform="translate(0.198234,-0.36)">
			<title>Cable without conduit</title>
			<g id="2" transform="translate(-33.6019,54.5783) rotate(-90)">
				<title>Cable without conduit</title>
				<desc>VOB X x Ymm²</desc>
				<rect x="0" y="43.8066" width="53.8583" height="10.7717" class="st1"/>
				<text x="6.59" y="50.99" class="st2">VOB X x Ymm²</text>			</g>
			<g id="3" transform="translate(-48.909,49.4759) rotate(-90)">
				<title>Cable without conduit</title>
				<desc>n</desc>
				<rect x="0" y="50.0428" width="11.3386" height="4.53543" class="st1"/>
				<text x="4" y="54.11" class="st2">n</text>			</g>
			<g id="4" transform="translate(4.53543,-7.10543E-015)">
				<title>Cable without conduit</title>
				<path d="M2.83 26.11 A1.62992 1.53881 -0 0 0 2.83 29.19 A1.62992 1.53881 -0 1 0 2.83 26.11 Z" class="st3"/>
				<path d="M2.83 26.11 A1.62992 1.53881 -0 0 0 2.83 29.19 A1.62992 1.53881 -0 1 0 2.83 26.11" class="st4"/>
				<path d="M2.83 0.72 L2.83 26.11 L2.83 29.19 L2.83 48.91 L2.83 54.58" class="st4"/>
				<path d="M5.67 51.74 L2.83 48.91 L0 46.07" class="st4"/>
			</g>
		</g>
	</g>
</svg>
