<?xml version="1.0" encoding="UTF-8" standalone="no"?>
<!DOCTYPE svg PUBLIC "-//W3C//DTD SVG 1.1//EN" "http://www.w3.org/Graphics/SVG/1.1/DTD/svg11.dtd">
<svg xmlns="http://www.w3.org/2000/svg" xmlns:xlink="http://www.w3.org/1999/xlink" xmlns:ev="http://www.w3.org/2001/xml-events"
		width="0.157016in" height="0.160953in" viewBox="0 0 11.3051 11.5886" xml:space="preserve"
		color-interpolation-filters="sRGB" class="st3">
	<title>Boiler</title>
	
	<style type="text/css">
	<![CDATA[
		.st1 {fill:none}
		.st2 {stroke:#000000;stroke-linecap:round;stroke-linejoin:round;stroke-width:0.25}
		.st3 {fill:none;fill-rule:evenodd;font-size:12px;overflow:visible;stroke-linecap:square;stroke-miterlimit:3}
	]]>
	</style>

	<g>
		<title>Boiler</title>
		<g id="1" transform="translate(0.125,-0.125)">
			<title>Boiler</title>
			<g id="2">
				<title>Boiler</title>
				<path d="M9.69 2.19 A5.66929 5.52756 -90 0 0 8.31 1.02 A5.66929 5.52756 -90 0 0 6.94 0.44 A5.66929 5.52756 -90 0
							 0 5.56 0.25 A5.66929 5.52756 -90 0 0 4.18 0.42 A5.66929 5.52756 -90 0 0 2.81 0.98 A5.66929 5.52756 -90
							 0 0 1.42 2.13 A5.66929 5.52756 -90 0 0 1.4 9.69 A5.66929 5.52756 -90 0 0 2.81 10.86 A5.66929 5.52756
							 -90 0 0 4.18 11.42 A5.66929 5.52756 -90 0 0 5.56 11.59 A5.66929 5.52756 -90 0 0 6.94 11.4 A5.66929 5.52756
							 -90 0 0 8.31 10.82 A5.66929 5.52756 -90 0 0 9.69 9.65 A5.66929 5.52756 -90 0 0 9.69 2.19 L9.69 2.19
							 Z" class="st1"/>
				<path d="M9.69 2.19 A5.66929 5.52756 -90 0 0 8.31 1.02 A5.66929 5.52756 -90 0 0 6.94 0.44 A5.66929 5.52756 -90 0
							 0 5.56 0.25 A5.66929 5.52756 -90 0 0 4.18 0.42 A5.66929 5.52756 -90 0 0 2.81 0.98 A5.66929 5.52756 -90
							 0 0 1.42 2.13 A5.66929 5.52756 -90 0 0 1.4 9.69 A5.66929 5.52756 -90 0 0 2.81 10.86 A5.66929 5.52756
							 -90 0 0 4.18 11.42 A5.66929 5.52756 -90 0 0 5.56 11.59 A5.66929 5.52756 -90 0 0 6.94 11.4 A5.66929 5.52756
							 -90 0 0 8.31 10.82 A5.66929 5.52756 -90 0 0 9.69 9.65 A5.66929 5.52756 -90 0 0 9.69 2.19 L9.69 2.19"
						class="st2"/>
				<path d="M4.18 0.42 L4.18 0.42" class="st2"/>
				<path d="M1.42 2.12 L1.42 2.13 L1.4 9.69" class="st2"/>
				<path d="M6.94 0.44 L6.94 11.4" class="st2"/>
				<path d="M2.81 10.86 L2.81 0.98" class="st2"/>
				<path d="M4.18 11.42 L4.18 0.42" class="st2"/>
				<path d="M9.69 9.65 L9.69 2.19" class="st2"/>
				<path d="M8.31 10.82 L8.31 1.02" class="st2"/>
				<path d="M5.56 11.59 L5.56 0.25" class="st2"/>
			</g>
		</g>
	</g>
</svg>
