<?xml version="1.0" encoding="UTF-8" standalone="no"?>
<!DOCTYPE svg PUBLIC "-//W3C//DTD SVG 1.1//EN" "http://www.w3.org/Graphics/SVG/1.1/DTD/svg11.dtd">
<svg xmlns="http://www.w3.org/2000/svg" xmlns:xlink="http://www.w3.org/1999/xlink" xmlns:ev="http://www.w3.org/2001/xml-events"
		width="0.357664in" height="0.121444in" viewBox="0 0 25.7518 8.74394" xml:space="preserve"
		color-interpolation-filters="sRGB" class="st3">
	<title>Electric door lock</title>

	<style type="text/css">
	<![CDATA[
		.st1 {fill:none}
		.st2 {stroke:#000000;stroke-linecap:round;stroke-linejoin:round;stroke-width:0.24}
		.st3 {fill:none;fill-rule:evenodd;font-size:12px;overflow:visible;stroke-linecap:square;stroke-miterlimit:3}
	]]>
	</style>

	<g>
		<title>Electric door lock</title>
		<g id="1" transform="translate(0.12,-0.12)">
			<title>Electric door lock</title>
			<g id="2">
				<title>Electric door lock</title>
				<path d="M0 8.74 L0 0.24 L19.84 0.24 L19.84 8.74 L0 8.74 Z" class="st1"/>
				<path d="M19.84 0.24 L25.51 8.74 L19.84 8.74" class="st2"/>
				<path d="M0 8.74 L0 0.24 L19.84 0.24 L19.84 8.74 L0 8.74" class="st2"/>
				<path d="M0 5.63 L3.69 5.63 A2.26772 1.55906 90 0 1 5.24 3.36 A2.26772 1.55906 90 0 1 6.8 5.63 A2.26772 1.55906 90
							 0 1 8.36 3.36 A2.26772 1.55906 90 0 1 9.92 5.63 A2.26772 1.55906 90 0 1 11.48 3.36 A2.26772 1.55906
							 90 0 1 13.04 5.63 A2.26772 1.55906 90 0 1 14.6 3.36 A2.26772 1.55906 90 0 1 16.16 5.63 L19.84 5.63"
						class="st2"/>
			</g>
		</g>
	</g>
</svg>
