<?xml version="1.0" encoding="UTF-8" standalone="no"?>
<!DOCTYPE svg PUBLIC "-//W3C//DTD SVG 1.1//EN" "http://www.w3.org/Graphics/SVG/1.1/DTD/svg11.dtd">
<svg xmlns="http://www.w3.org/2000/svg" xmlns:xlink="http://www.w3.org/1999/xlink" xmlns:ev="http://www.w3.org/2001/xml-events"
		width="0.318433in" height="0.160953in" viewBox="0 0 22.9272 11.5886" xml:space="preserve"
		color-interpolation-filters="sRGB" class="st3">
	<title>Heating device</title>

	<style type="text/css">
	<![CDATA[
		.st1 {fill:none}
		.st2 {stroke:#000000;stroke-linecap:round;stroke-linejoin:round;stroke-width:0.25}
		.st3 {fill:none;fill-rule:evenodd;font-size:12px;overflow:visible;stroke-linecap:square;stroke-miterlimit:3}
	]]>
	</style>

	<g>
		<title>Heating device</title>
		<g id="1" transform="translate(0.125,-0.125)">
			<title>Heating device</title>
			<g id="2">
				<title>Heating device</title>
				<path d="M2.27 0.25 L1.06 0.25 L0 0.25 L0 11.59 L1.06 11.59 L2.27 11.59 L3.47 11.59 L4.68 11.59 L5.89 11.59 L7.1
							 11.59 L8.3 11.59 L9.51 11.59 L10.72 11.59 L11.92 11.59 L13.13 11.59 L14.34 11.59 L15.55 11.59 L16.75
							 11.59 L17.96 11.59 L19.17 11.59 L20.38 11.59 L21.58 11.59 L22.68 11.59 L22.68 0.25 L21.58 0.25 L20.38
							 0.25 L19.17 0.25 L17.96 0.25 L16.75 0.25 L15.55 0.25 L14.34 0.25 L13.13 0.25 L11.92 0.25 L10.72 0.25
							 L9.51 0.25 L8.3 0.25 L7.1 0.25 L5.89 0.25 L4.68 0.25 L3.47 0.25 L2.27 0.25 Z" class="st1"/>
				<path d="M2.27 0.25 L1.06 0.25 L0 0.25 L0 11.59 L1.06 11.59 L2.27 11.59 L3.47 11.59 L4.68 11.59 L5.89 11.59 L7.1
							 11.59 L8.3 11.59 L9.51 11.59 L10.72 11.59 L11.92 11.59 L13.13 11.59 L14.34 11.59 L15.55 11.59 L16.75
							 11.59 L17.96 11.59 L19.17 11.59 L20.38 11.59 L21.58 11.59 L22.68 11.59 L22.68 0.25 L21.58 0.25 L20.38
							 0.25 L19.17 0.25 L17.96 0.25 L16.75 0.25 L15.55 0.25 L14.34 0.25 L13.13 0.25 L11.92 0.25 L10.72 0.25
							 L9.51 0.25 L8.3 0.25 L7.1 0.25 L5.89 0.25 L4.68 0.25 L3.47 0.25 L2.27 0.25" class="st2"/>
				<path d="M0 11.59 L0 0.25" class="st2"/>
				<path d="M20.41 0.25 L20.41 11.59" class="st2"/>
				<path d="M18.14 0.25 L18.14 11.59" class="st2"/>
				<path d="M15.87 0.25 L15.87 11.59" class="st2"/>
				<path d="M13.61 0.25 L13.61 11.59" class="st2"/>
				<path d="M11.34 0.25 L11.34 11.59" class="st2"/>
				<path d="M9.07 0.25 L9.07 11.59" class="st2"/>
				<path d="M6.8 0.25 L6.8 11.59" class="st2"/>
				<path d="M4.54 0.25 L4.54 11.59" class="st2"/>
				<path d="M2.27 0.25 L2.27 11.59" class="st2"/>
				<path d="M22.68 0.25 L22.68 11.59" class="st2"/>
			</g>
		</g>
	</g>
</svg>
