<?xml version="1.0" encoding="UTF-8" standalone="no"?>
<!DOCTYPE svg PUBLIC "-//W3C//DTD SVG 1.1//EN" "http://www.w3.org/Graphics/SVG/1.1/DTD/svg11.dtd">
<svg xmlns="http://www.w3.org/2000/svg" xmlns:xlink="http://www.w3.org/1999/xlink" xmlns:ev="http://www.w3.org/2001/xml-events"
		width="0.318433in" height="0.160953in" viewBox="0 0 22.9272 11.5886" xml:space="preserve"
		color-interpolation-filters="sRGB" class="st3">
	<title>Heating device with heat accumulation</title>

	<style type="text/css">
	<![CDATA[
		.st1 {fill:none}
		.st2 {stroke:#000000;stroke-linecap:round;stroke-linejoin:round;stroke-width:0.25}
		.st3 {fill:none;fill-rule:evenodd;font-size:12px;overflow:visible;stroke-linecap:square;stroke-miterlimit:3}
	]]>
	</style>

	<g>
		<title>Heating device with heat accumulation</title>
		<g id="1" transform="translate(0.125,-0.125)">
			<title>Heating device with heat accumulation</title>
			<g id="2">
				<title>Heating device with heat accumulation</title>
				<path d="M0 11.59 L0 0.25 L22.68 0.25 L22.68 11.59 L0 11.59 ZM2.83 8.75 L2.83 3.08 L19.84 3.08 L19.84 8.75 L2.83
							 8.75 Z" class="st1"/>
				<path d="M0 11.59 L0 0.25 L22.68 0.25 L22.68 11.59 L0 11.59" class="st2"/>
				<path d="M2.83 8.75 L2.83 3.08 L19.84 3.08 L19.84 8.75 L2.83 8.75" class="st2"/>
				<path d="M4.54 8.75 L4.54 3.08" class="st2"/>
				<path d="M6.24 8.75 L6.24 3.08" class="st2"/>
				<path d="M7.94 8.75 L7.94 3.08" class="st2"/>
				<path d="M9.64 8.75 L9.64 3.08" class="st2"/>
				<path d="M11.34 8.75 L11.34 3.08" class="st2"/>
				<path d="M13.04 8.75 L13.04 3.08" class="st2"/>
				<path d="M14.74 8.75 L14.74 3.08" class="st2"/>
				<path d="M16.44 8.75 L16.44 3.08" class="st2"/>
				<path d="M18.14 8.75 L18.14 3.08" class="st2"/>
			</g>
		</g>
	</g>
</svg>
