<?xml version="1.0" encoding="UTF-8" standalone="no"?>
<!DOCTYPE svg PUBLIC "-//W3C//DTD SVG 1.1//EN" "http://www.w3.org/Graphics/SVG/1.1/DTD/svg11.dtd">
<svg xmlns="http://www.w3.org/2000/svg" xmlns:xlink="http://www.w3.org/1999/xlink" xmlns:ev="http://www.w3.org/2001/xml-events"
		width="0.318433in" height="0.160953in" viewBox="0 0 22.9272 11.5886" xml:space="preserve"
		color-interpolation-filters="sRGB" class="st3">
	<title>Heating device with heat accumulation and built-in fan</title>

	<style type="text/css">
	<![CDATA[
		.st1 {fill:none}
		.st2 {stroke:#000000;stroke-linecap:round;stroke-linejoin:round;stroke-width:0.25}
		.st3 {fill:none;fill-rule:evenodd;font-size:12px;overflow:visible;stroke-linecap:square;stroke-miterlimit:3}
	]]>
	</style>

	<g>
		<title>Heating device with heat accumulation and built-in fan</title>
		<g id="1" transform="translate(0.125,-0.125)">
			<title>Heating device with heat accumulation and built-in fan</title>
			<g id="2">
				<title>Heating device with heat accumulation and built-in fan</title>
				<path d="M21.17 6.06 A2.12598 2.12598 0 1 1 16.91 6.06 A2.12598 2.12598 0 1 1 21.17 6.06 ZM16.91 6.06 A2.12598 2.12598
							 0 1 1 12.66 6.06 A2.12598 2.12598 0 1 1 16.91 6.06 ZM0 11.59 L22.68 11.59 L22.68 0.25 L0 0.25 L0 11.59
							 ZM1.51 8.19 L1.51 3.69 L11.34 3.69 L11.34 8.19 L1.51 8.19 Z" class="st1"/>
				<path d="M21.17 6.06 A2.12598 2.12598 0 1 1 16.91 6.06 A2.12598 2.12598 0 1 1 21.17 6.06" class="st2"/>
				<path d="M16.91 6.06 A2.12598 2.12598 0 1 1 12.66 6.06 A2.12598 2.12598 0 1 1 16.91 6.06" class="st2"/>
				<path d="M0 11.59 L22.68 11.59 L22.68 0.25 L0 0.25 L0 11.59" class="st2"/>
				<path d="M1.51 8.19 L1.51 3.69 L11.34 3.69 L11.34 8.19 L1.51 8.19" class="st2"/>
				<path d="M9.93 8.19 L9.93 3.69" class="st2"/>
				<path d="M8.53 8.19 L8.53 3.69" class="st2"/>
				<path d="M7.13 8.19 L7.13 3.69" class="st2"/>
				<path d="M5.72 8.19 L5.72 3.69" class="st2"/>
				<path d="M4.32 8.19 L4.32 3.69" class="st2"/>
				<path d="M2.92 8.19 L2.92 3.69" class="st2"/>
			</g>
		</g>
	</g>
</svg>
