<?xml version="1.0" encoding="UTF-8" standalone="no"?>
<!DOCTYPE svg PUBLIC "-//W3C//DTD SVG 1.1//EN" "http://www.w3.org/Graphics/SVG/1.1/DTD/svg11.dtd">
<svg xmlns="http://www.w3.org/2000/svg" xmlns:xlink="http://www.w3.org/1999/xlink" xmlns:ev="http://www.w3.org/2001/xml-events"
		width="0.239693in" height="0.239693in" viewBox="0 0 17.2579 17.2579" xml:space="preserve"
		color-interpolation-filters="sRGB" class="st3">
	<title>Microwave oven</title>

	<style type="text/css">
	<![CDATA[
		.st1 {stroke:#000000;stroke-linecap:round;stroke-linejoin:round;stroke-width:0.25}
		.st2 {fill:none;stroke:#000000;stroke-linecap:round;stroke-linejoin:round;stroke-width:0.25}
		.st3 {fill:none;fill-rule:evenodd;font-size:12px;overflow:visible;stroke-linecap:square;stroke-miterlimit:3}
	]]>
	</style>

	<g>
		<title>Microwave oven</title>
		<g id="1" transform="translate(0.125,-0.125)">
			<title>Microwave oven</title>
			<g id="2" transform="translate(3.9685,-10.0725)">
				<title>Microwave oven</title>
				<path d="M9.07 15.05 L8.94 15.25 L8.66 15.64 L8.34 16.07 L8.04 16.44 L7.79 16.72 L7.57 16.92 L7.37 17.06 L7.18 17.17
							 L6.99 17.24 L6.99 17.24 L6.8 17.26 L6.61 17.24 L6.43 17.17 L6.24 17.06 L6.04 16.92 L5.82 16.72 L5.56
							 16.44 L5.26 16.07 L4.95 15.64 L4.67 15.25 L4.54 15.05 L4.54 15.05 L4.4 14.86 L4.12 14.46 L3.81 14.04
							 L3.51 13.67 L3.25 13.39 L3.03 13.19 L2.84 13.05 L2.65 12.94 L2.46 12.87 L2.46 12.87 L2.27 12.85 L2.08
							 12.87 L1.89 12.94 L1.7 13.05 L1.5 13.19 L1.28 13.39 L1.03 13.67 L0.73 14.04 L0.41 14.46 L0.13 14.86
							 L0 15.05 L0 15.05" class="st1"/>
			</g>
			<g id="3" transform="translate(3.9685,-6.32366)">
				<title>Microwave oven</title>
				<path d="M9.07 15.05 L8.94 15.25 L8.66 15.64 L8.34 16.07 L8.04 16.44 L7.79 16.72 L7.57 16.92 L7.37 17.06 L7.18 17.17
							 L6.99 17.24 L6.99 17.24 L6.8 17.26 L6.61 17.24 L6.43 17.17 L6.24 17.06 L6.04 16.92 L5.82 16.72 L5.56
							 16.44 L5.26 16.07 L4.95 15.64 L4.67 15.25 L4.54 15.05 L4.54 15.05 L4.4 14.86 L4.12 14.46 L3.81 14.04
							 L3.51 13.67 L3.25 13.39 L3.03 13.19 L2.84 13.05 L2.65 12.94 L2.46 12.87 L2.46 12.87 L2.27 12.85 L2.08
							 12.87 L1.89 12.94 L1.7 13.05 L1.5 13.19 L1.28 13.39 L1.03 13.67 L0.73 14.04 L0.41 14.46 L0.13 14.86
							 L-0 15.05 L0 15.05" class="st1"/>
			</g>
			<g id="4" transform="translate(3.9685,-2.5748)">
				<title>Microwave oven</title>
				<path d="M9.07 15.05 L8.94 15.25 L8.66 15.64 L8.34 16.07 L8.04 16.44 L7.79 16.72 L7.57 16.92 L7.37 17.06 L7.18 17.17
							 L6.99 17.24 L6.99 17.24 L6.8 17.26 L6.61 17.24 L6.43 17.17 L6.24 17.06 L6.04 16.92 L5.82 16.72 L5.56
							 16.44 L5.26 16.07 L4.95 15.64 L4.67 15.25 L4.54 15.05 L4.54 15.05 L4.4 14.86 L4.12 14.46 L3.81 14.04
							 L3.51 13.67 L3.25 13.39 L3.03 13.19 L2.84 13.05 L2.65 12.94 L2.46 12.87 L2.46 12.87 L2.27 12.85 L2.08
							 12.87 L1.89 12.94 L1.7 13.05 L1.5 13.19 L1.28 13.39 L1.03 13.67 L0.73 14.04 L0.41 14.46 L0.13 14.86
							 L-0 15.05 L0 15.05" class="st1"/>
			</g>
			<g id="5">
				<title>Microwave oven</title>
				<path d="M0 8.75 L0 17.26 L17.01 17.26 L17.01 0.25 L0 0.25 L0 8.75 Z" class="st2"/>
			</g>
		</g>
	</g>
</svg>
