<?xml version="1.0" encoding="UTF-8" standalone="no"?>
<!DOCTYPE svg PUBLIC "-//W3C//DTD SVG 1.1//EN" "http://www.w3.org/Graphics/SVG/1.1/DTD/svg11.dtd">
<svg xmlns="http://www.w3.org/2000/svg" xmlns:xlink="http://www.w3.org/1999/xlink" xmlns:ev="http://www.w3.org/2001/xml-events"
		width="0.288766in" height="0.239554in" viewBox="0 0 20.7912 17.2479" xml:space="preserve"
		color-interpolation-filters="sRGB" class="st4">
	<title>Microwave oven for floorplan</title>

	<style type="text/css">
	<![CDATA[
		.st1 {stroke:#000000;stroke-linecap:round;stroke-linejoin:round;stroke-width:0.25}
		.st2 {fill:none}
		.st3 {stroke:#000000;stroke-linecap:round;stroke-linejoin:round;stroke-width:0.24}
		.st4 {fill:none;fill-rule:evenodd;font-size:12px;overflow:visible;stroke-linecap:square;stroke-miterlimit:3}
	]]>
	</style>

	<g>
		<title>Microwave oven for floorplan</title>
		<g id="1" transform="translate(0.12,-0.12)">
			<title>Microgolfoven voor ééndraadsschema</title>
			<g id="2" transform="translate(7.51181,-10.0725)">
				<title>Microwave oven for floorplan</title>
				<path d="M9.07 15.04 L8.94 15.24 L8.66 15.63 L8.34 16.06 L8.04 16.43 L7.79 16.71 L7.57 16.91 L7.37 17.05 L7.18 17.16
							 L6.99 17.23 L6.99 17.23 L6.8 17.25 L6.61 17.23 L6.43 17.16 L6.24 17.05 L6.04 16.91 L5.82 16.71 L5.56
							 16.43 L5.26 16.06 L4.95 15.63 L4.67 15.24 L4.54 15.04 L4.54 15.04 L4.4 14.85 L4.12 14.45 L3.81 14.03
							 L3.51 13.66 L3.25 13.38 L3.03 13.18 L2.84 13.04 L2.65 12.93 L2.46 12.86 L2.46 12.86 L2.27 12.84 L2.08
							 12.86 L1.89 12.93 L1.7 13.04 L1.5 13.18 L1.28 13.38 L1.03 13.66 L0.73 14.03 L0.41 14.45 L0.13 14.85
							 L0 15.04 L0 15.04" class="st1"/>
			</g>
			<g id="3" transform="translate(7.51181,-6.32366)">
				<title>Microwave oven for floorplan</title>
				<path d="M9.07 15.04 L8.94 15.24 L8.66 15.63 L8.34 16.06 L8.04 16.43 L7.79 16.71 L7.57 16.91 L7.37 17.05 L7.18 17.16
							 L6.99 17.23 L6.99 17.23 L6.8 17.25 L6.61 17.23 L6.43 17.16 L6.24 17.05 L6.04 16.91 L5.82 16.71 L5.56
							 16.43 L5.26 16.06 L4.95 15.63 L4.67 15.24 L4.54 15.04 L4.54 15.04 L4.4 14.85 L4.12 14.45 L3.81 14.03
							 L3.51 13.66 L3.25 13.38 L3.03 13.18 L2.84 13.04 L2.65 12.93 L2.46 12.86 L2.46 12.86 L2.27 12.84 L2.08
							 12.86 L1.89 12.93 L1.7 13.04 L1.5 13.18 L1.28 13.38 L1.03 13.66 L0.73 14.03 L0.41 14.45 L0.13 14.85
							 L-0 15.04 L0 15.04" class="st1"/>
			</g>
			<g id="4" transform="translate(7.51181,-2.5748)">
				<title>Microwave oven for floorplan</title>
				<path d="M9.07 15.04 L8.94 15.24 L8.66 15.63 L8.34 16.06 L8.04 16.43 L7.79 16.71 L7.57 16.91 L7.37 17.05 L7.18 17.16
							 L6.99 17.23 L6.99 17.23 L6.8 17.25 L6.61 17.23 L6.43 17.16 L6.24 17.05 L6.04 16.91 L5.82 16.71 L5.56
							 16.43 L5.26 16.06 L4.95 15.63 L4.67 15.24 L4.54 15.04 L4.54 15.04 L4.4 14.85 L4.12 14.45 L3.81 14.03
							 L3.51 13.66 L3.25 13.38 L3.03 13.18 L2.84 13.04 L2.65 12.93 L2.46 12.86 L2.46 12.86 L2.27 12.84 L2.08
							 12.86 L1.89 12.93 L1.7 13.04 L1.5 13.18 L1.28 13.38 L1.03 13.66 L0.73 14.03 L0.41 14.45 L0.13 14.85
							 L-0 15.04 L0 15.04" class="st1"/>
			</g>
			<g id="5">
				<title>Microwave oven for floorplan</title>
				<path d="M3.54 8.74 L3.54 0.24 L20.55 0.24 L20.55 17.25 L3.54 17.25 L3.54 8.74 Z" class="st2"/>
				<path d="M3.54 8.74 L3.54 0.24 L20.55 0.24 L20.55 17.25 L3.54 17.25 L3.54 8.74" class="st3"/>
				<path d="M3.54 8.74 L-0 8.74" class="st3"/>
			</g>
		</g>
	</g>
</svg>
